<?xml version="1.0" encoding="utf-8"?>
<!-- Generator: Adobe Illustrator 19.1.0, SVG Export Plug-In . SVG Version: 6.00 Build 0)  -->
<!DOCTYPE svg PUBLIC "-//W3C//DTD SVG 1.1//EN" "http://www.w3.org/Graphics/SVG/1.1/DTD/svg11.dtd">
<svg version="1.1" id="Layer_1" xmlns="http://www.w3.org/2000/svg" xmlns:xlink="http://www.w3.org/1999/xlink" x="0px" y="0px"
	 viewBox="0 0 363 307.3" enable-background="new 0 0 363 307.3" xml:space="preserve">
<path fill="#FFFFFF" stroke="#E1BD5C" stroke-width="5" stroke-miterlimit="10" d="M360.5,140.5c0,58.5-47.2,108.5-113.8,128.6
	c-9.9,3-6.2,22.2,6.5,35.7c-33.5,0.1-60-26.3-71.7-26.3c-98.9,0-179-61.8-179-138s80.1-138,179-138S360.5,64.3,360.5,140.5z"/>
<g>
	<g id="angel_1_">
		<g>
			<path fill="#E1BD5C" d="M178.2,222.5c-1-4.7-3.5-7-3.5-7c-12.8-0.6-25-11.5-25-11.5c-8.3-7,2.6-28.8,2.6-28.8
				c-8.2-11.8-21.1-45.9-22.2-72.2c-1.4-35,10-66.6,10-66.6c-24.3,10.2-25.6,78.7-25.6,78.7c-1.3-26.9,7-73.6,7-73.6
				c-23,30.7-12.2,94-12.2,94c-17.3-30.7-1.9-83.8-1.9-83.8c-32.6,32.6-7,97.9-7,97.9C83.1,133.6,85,75.4,85,75.4
				c-22.4,71.7,15.4,97.9,15.4,97.9c-18.6,3.8-30.1-52.5-30.1-52.5c-1.3,55.7,31.4,72.9,31.4,72.9c-7.7,5.8-28.1-21.8-28.1-21.8
				c1.9,20.5,32,35.8,32,35.8l5.1,3.8c-3.8,4.5-21.1-8.3-21.1-8.3c2.6,11.5,32,17.9,32,17.9c-5.9,3.4-21.8-2.6-21.8-2.6
				c33.9,38.4,66.5,30.1,66.5,30.1C179.8,248.8,180.2,232.4,178.2,222.5z"/>
		</g>
	</g>
	<g id="angel_2_">
		<g>
			<path fill="#E1BD5C" d="M259,193.8c0,0,32.6-17.3,31.3-72.9c0,0-11.5,56.3-30.1,52.5c0,0,37.7-26.2,15.4-97.9
				c0,0,1.9,58.2-15.4,74.2c0,0,25.6-65.3-7-97.9c0,0,15.4,53.1-1.9,83.8c0,0,10.9-63.3-12.2-94c0,0,8.3,46.7,7,73.6
				c0,0-1.3-68.5-25.6-78.7c0,0,11.5,31.6,10,66.6c-1.1,26.3-14,60.4-22.2,72.2c0,0,10.9,21.8,2.6,28.8c0,0-12.2,10.9-25,11.5
				c0,0-2.5,2.2-3.5,7c-2,9.9-1.6,26.3,11.8,26.3c0,0,32.6,8.3,66.5-30.1c0,0-15.8,5.9-21.8,2.6c0,0,29.4-6.4,32-17.9
				c0,0-17.3,12.8-21.1,8.3l5.1-3.8c0,0,30.1-15.4,32-35.8C287.1,172,266.7,199.5,259,193.8z"/>
		</g>
	</g>
</g>
</svg>
