<?xml version="1.0" encoding="utf-8"?>
<!-- Generator: Adobe Illustrator 19.1.0, SVG Export Plug-In . SVG Version: 6.00 Build 0)  -->
<!DOCTYPE svg PUBLIC "-//W3C//DTD SVG 1.1//EN" "http://www.w3.org/Graphics/SVG/1.1/DTD/svg11.dtd">
<svg version="1.1" id="Layer_1" xmlns="http://www.w3.org/2000/svg" xmlns:xlink="http://www.w3.org/1999/xlink" x="0px" y="0px"
	 viewBox="0 0 637.4 156.3" enable-background="new 0 0 637.4 156.3" xml:space="preserve">
<g>
	<g>
		<path fill="#9D3393" d="M269.5,104.5c-1.2,0-2.3,1.2-4.1,3.1c-1.4,1.5-3.2,3.4-4.9,4.4c-3.9,2.5-7.2,4.4-11.4,4.1
			c-4.2-0.4,0,0,0,0c-3.1-0.1-6.9-3.8-8.4-8.1c5.6-5.6,11.8-11.6,16.1-19.2c4.9-8.7,7.2-19.8,3.5-26.8c-2.1-4-5.7-6.2-10.3-6.2
			c-5.1,0-9.4,2.2-12.6,6.6c-7.6,10.1-8.2,30.7-4.4,44.3c-3.2,2.7-8.1,5.5-12.9,5.8c0-0.5-0.1-1-0.1-1.6c-0.4-5.7-0.9-14.3-8-14.3
			c-0.7,0-1.5,0.1-2.3,0.3c-3.4,0.8-5,4.9-4.5,9.3c0.6,5.4,5.3,10.5,10.3,11.6c-2.2,10.1-8.1,32.6-18.7,32.6
			c-10,0-15.1-26-15.9-36.3c15.6-13.5,31.8-30.9,34.7-57.5c1.4-11.8,0.6-27.5-6-36.6c-2.2-2.2-4.5-3.3-7.1-3.3
			c-7.3,0-12.9,8.8-13.9,10.6c-12.5,21.1-13.8,53.1-14,84.1c-5.2,4.4-14,3.9-18.2-0.7c-1.9-2.1-2.7-4.6-2.5-7.3
			c1.1-4,2-9.3,0.1-11.8c-1-1.3-2.6-1.7-4.5-1.2l-0.9,0.3l0,0.9c-1.2,19.4-6.3,27.2-15.9,24.2c-5-1.6-6.2-5.9-6.4-8.4
			c-0.5-5.2,2-10.7,5.6-12.5c2.1-1.1,4.4-2,7-3c9.9-4,22.1-8.9,20.4-23.8c-1.4-11.4-12.4-15.5-21.5-15.5c-6.9,0-14.8,2.4-18.5,7.6
			c-3.3-10.7-13.2-14.6-22-14.6c-10,0-19.5,4.7-23.6,11.6c-2.3,3.8-4.1,10.2,0.4,18.6c3.2,6,10.1,9,16.6,11.8
			c7.9,3.4,15.3,6.6,16.9,14.6c1.3,6.9-1.3,14.7-8.8,16.2c-5.3,1.1-11.7-2.8-13.7-7.7c-0.8-2-1.2-5,1.7-7.8l0.8-0.8l-0.7-0.9
			c-1.2-1.5-2.5-2.3-3.8-2.3c-0.7,0-1.7,0.2-2.8,1.3c-2,2.2-2.8,6.6-2.6,8.7c0.9,9.4,10,14.4,18.5,14.4c6.6,0,14.5-3,17-11.4
			c5.2-17.5-7.7-24.1-19.1-29.9c-10-5.1-18.5-9.5-16.2-19.6c3.4-7.5,12.3-10.9,19.6-10.9c5.9,0,11.2,2,14.4,5.6
			c1.8,2,2.4,6.2,2.8,9.5c0.6,4.1,1,7.3,3.6,7.3c1.2,0,2.3-0.8,3.8-2.6l0.3-0.6c1.7-7.7,10.7-12.5,18.1-12.5c7.3,0,12,4.3,12.6,11.4
			c0.7,9.7-7.4,13.2-15.9,16.9c-8.9,3.9-18.9,8.2-17.4,20.6c1.4,11.2,9,15.2,15.7,15.2c6.5,0,12.5-3.5,15.3-8.6
			c4.5,5.5,10.9,6.4,14.5,6.4c3.4,0,6.9-0.8,9.6-2.1c1.5,13.2,8.3,38,21.5,38c1.3,0,2.6-0.2,3.9-0.7c5.6-2.1,9.5-6.9,11.6-10.5
			c3.9-5.8,6.9-18.8,7.9-26.6c5.1,0,11.4-3.1,15.8-6c4.2,8.1,9.9,9.8,14.1,9.8c6.3,0,13.6-4,19.6-10.7c0.1-0.1,2.2-2.5,2.2-4.5
			C271.4,104.7,270.1,104.5,269.5,104.5z M238.4,101.5c-2.9-13.3-2.9-34.2,9.3-37.8c2.1-0.6,4.3,0.6,5.1,1.5
			c1.8,1.9,2.4,5.3,2.2,9.3c-0.5,10.9-9.5,19.8-15.4,25.6C239.2,100.7,238.8,101.1,238.4,101.5z M209.2,104.8c0-4.4,3.2-4.3,4.2-3.6
			c3,1.8,2.7,11.6,2.7,11.6C212.9,112.2,209.2,108,209.2,104.8z M209.3,52.5c-3.1,20.5-15.2,42.8-28.6,53.4
			c-0.8-20.8,2.1-49.8,10.5-70.2c2.4-6.8,6.7-14.1,10.4-14.1c0.9,0,1.8,0.4,2.6,1.2C210.9,31.3,210.7,43.6,209.3,52.5z"/>
	</g>
	<g>
		<path fill="#717073" d="M338.9,57.1h-6.5c-1.4,0-2.4,1.1-2.4,2.4v23h-28.2v-23c0-1.4-1.1-2.4-2.4-2.4h-6.5c-1.4,0-2.4,1.1-2.4,2.4
			v57.4c0,1.4,1.1,2.4,2.4,2.4h6.5c1.4,0,2.4-1.1,2.4-2.4V93.6H330v23.4c0,1.4,1.1,2.4,2.4,2.4h6.5c1.4,0,2.4-1.1,2.4-2.4V59.5
			C341.3,58.2,340.2,57.1,338.9,57.1z"/>
		<path fill="#717073" d="M385.9,56.1c-17.8,0-31.8,14.1-31.8,32.3c0,18.2,13.6,32,31.6,32c17.8,0,31.8-14.1,31.8-32.3
			C417.6,69.8,404,56.1,385.9,56.1z M385.9,109.5c-11.5,0-20.2-9.1-20.2-21.4c0-12,8.6-21.1,20-21.1c11.5,0,20.2,9.1,20.2,21.4
			C405.9,100.4,397.3,109.5,385.9,109.5z"/>
		<path fill="#717073" d="M489.6,57.1h-6.6c-0.8,0-1.6,0.4-2,1.1l-18.9,28.3l-18.9-28.3c-0.4-0.7-1.2-1.1-2-1.1h-6.6
			c-1.3,0-2.4,1.1-2.4,2.4v57.4c0,1.4,1.1,2.4,2.4,2.4h6.3c1.3,0,2.4-1.1,2.4-2.4V78.5l16.4,24.1c0.9,1.3,3.5,1.3,4.4,0l16.4-24.2
			v38.5c0,1.4,1.1,2.4,2.4,2.4h6.5c1.4,0,2.5-1.1,2.5-2.4V59.5C492.1,58.2,491,57.1,489.6,57.1z"/>
		<path fill="#717073" d="M555.9,108.6h-33V93.4h28.9c1.4,0,2.4-1.1,2.4-2.5V85c0-1.4-1.1-2.4-2.4-2.4H523V67.9h32.6
			c1.3,0,2.4-1.1,2.4-2.4v-5.9c0-1.4-1.1-2.4-2.4-2.4h-41.5c-1.4,0-2.5,1.1-2.5,2.4v57.4c0,1.4,1.1,2.4,2.5,2.4h41.9
			c1.4,0,2.4-1.1,2.4-2.4V111C558.4,109.7,557.3,108.6,555.9,108.6z"/>
		<path fill="#717073" d="M599.9,82.7c-12.7-2.7-13.6-5.4-13.6-8.9c0-4,4-6.8,9.8-6.8c5.5,0,10.3,1.8,15,5.7
			c0.5,0.4,1.2,0.6,1.8,0.5c0.7-0.1,1.3-0.4,1.7-1l3.8-5c0.8-1.1,0.6-2.5-0.4-3.4c-6.5-5.2-13.2-7.6-21.7-7.6
			c-12.1,0-21.3,7.8-21.3,18.3c0,12.6,10.2,16.6,21.2,19c12,2.5,13,5.2,13,8.7c0,4.4-4.2,7.3-10.3,7.3c-6.9,0-12.2-2.2-18-7.5
			c-0.5-0.4-1.2-0.7-1.8-0.6c-0.7,0-1.3,0.4-1.7,0.9l-4,4.8c-0.9,1-0.7,2.5,0.2,3.4c7.5,6.7,15.5,9.8,25.1,9.8c13,0,22-7.7,22-18.8
			C620.5,88.8,609.5,84.8,599.9,82.7z"/>
	</g>
	<g>
		<path fill="#717073" d="M246.2,137h3.6c2.8,0,4.2,1.3,4.2,4.2v10.5c0,2.8-1.4,4.2-4.2,4.2h-3.6V137z M248.4,154h1.3
			c1.5,0,2.1-0.7,2.1-2.2v-10.6c0-1.5-0.7-2.2-2.1-2.2h-1.3V154z"/>
		<path fill="#717073" d="M264.4,156.1h-0.8c-2.4,0-3.5-1.2-3.5-3.5v-12.2c0-2.3,1.2-3.5,3.5-3.5h0.8c2.4,0,3.5,1.2,3.5,3.5v12.2
			C267.9,154.9,266.7,156.1,264.4,156.1z M264.3,138.8h-0.6c-1,0-1.4,0.5-1.4,1.4v12.4c0,1,0.5,1.4,1.4,1.4h0.6c1,0,1.4-0.5,1.4-1.4
			v-12.4C265.7,139.3,265.3,138.8,264.3,138.8z"/>
		<path fill="#717073" d="M279.8,151.9l2.4-14.9h3.4v18.9h-2.1v-15.6l-2.6,15.6h-2.2l-2.6-15.6v15.6H274V137h3.4L279.8,151.9z"/>
		<path fill="#717073" d="M297.6,137v2h-3.8v6.3h3.7v2h-3.7v6.7h3.8v2h-6V137H297.6z"/>
		<path fill="#717073" d="M311,149.8v2.8c0,2.4-1.2,3.5-3.5,3.5h-0.6c-2.3,0-3.5-1.2-3.5-3.5v-4h2.1v4.1c0,1,0.5,1.4,1.4,1.4h0.4
			c1,0,1.4-0.5,1.4-1.4v-2.8c0-1-0.3-1.4-0.9-1.8l-2.7-1.9c-1.4-1-1.8-2-1.8-3.5v-2.3c0-2.3,1.2-3.5,3.5-3.5h0.5
			c2.3,0,3.5,1.2,3.5,3.5v3.4h-2.1v-3.5c0-1-0.5-1.4-1.4-1.4H307c-1,0-1.4,0.5-1.4,1.4v2.4c0,0.9,0.3,1.3,1,1.8l2.6,1.9
			C310.6,147.3,311,148.2,311,149.8z"/>
		<path fill="#717073" d="M318.8,155.9V139H316v-2h7.8v2H321v16.9H318.8z"/>
		<path fill="#717073" d="M331.4,155.9h-2.2V137h2.2V155.9z"/>
		<path fill="#717073" d="M345.2,148.7v3.9c0,2.4-1.2,3.5-3.5,3.5H341c-2.4,0-3.5-1.2-3.5-3.5v-12.2c0-2.3,1.2-3.5,3.5-3.5h0.7
			c2.3,0,3.5,1.1,3.5,3.5v3.4H343v-3.5c0-1-0.5-1.4-1.4-1.4h-0.5c-1,0-1.4,0.5-1.4,1.4v12.4c0,1,0.5,1.4,1.4,1.4h0.6
			c1,0,1.4-0.5,1.4-1.4v-4H345.2z"/>
		<path fill="#717073" d="M364.2,137h2.1l-3,19h-2.4l-3-19h2.2l2,14.5L364.2,137z"/>
		<path fill="#717073" d="M374.1,155.9h-2.2V137h2.2V155.9z"/>
		<path fill="#717073" d="M384.5,156.1h-0.8c-2.4,0-3.5-1.2-3.5-3.5v-12.2c0-2.3,1.2-3.5,3.5-3.5h0.8c2.4,0,3.5,1.2,3.5,3.5v12.2
			C388,154.9,386.8,156.1,384.5,156.1z M384.4,138.8h-0.6c-1,0-1.4,0.5-1.4,1.4v12.4c0,1,0.5,1.4,1.4,1.4h0.6c1,0,1.4-0.5,1.4-1.4
			v-12.4C385.8,139.3,385.4,138.8,384.4,138.8z"/>
		<path fill="#717073" d="M396.2,137v16.9h3.6v2h-5.7V137H396.2z"/>
		<path fill="#717073" d="M411.4,137v2h-3.8v6.3h3.7v2h-3.7v6.7h3.8v2h-6V137H411.4z"/>
		<path fill="#717073" d="M423.4,137h2.1v18.9h-2.7l-3.4-14.8v14.8h-2.1V137h3l3.1,13.7V137z"/>
		<path fill="#717073" d="M439.3,148.7v3.9c0,2.4-1.2,3.5-3.5,3.5h-0.7c-2.4,0-3.5-1.2-3.5-3.5v-12.2c0-2.3,1.2-3.5,3.5-3.5h0.7
			c2.3,0,3.5,1.1,3.5,3.5v3.4h-2.1v-3.5c0-1-0.5-1.4-1.4-1.4h-0.5c-1,0-1.4,0.5-1.4,1.4v12.4c0,1,0.5,1.4,1.4,1.4h0.6
			c1,0,1.4-0.5,1.4-1.4v-4H439.3z"/>
		<path fill="#717073" d="M451.2,137v2h-3.8v6.3h3.6v2h-3.6v6.7h3.8v2h-6V137H451.2z"/>
		<path fill="#717073" d="M466.6,155.9h-2.2V137h2.2V155.9z"/>
		<path fill="#717073" d="M478.9,137h2v18.9h-2.7l-3.4-14.8v14.8h-2.1V137h3l3.1,13.7V137z"/>
		<path fill="#717073" d="M489.2,155.9V139h-2.8v-2h7.8v2h-2.8v16.9H489.2z"/>
		<path fill="#717073" d="M505.5,137v2h-3.8v6.3h3.7v2h-3.7v6.7h3.8v2h-6V137H505.5z"/>
		<path fill="#717073" d="M519,149.5v6.4h-2.2v-6.3c0-1.1-0.5-1.7-1.6-1.7h-1.6v8h-2.2V137h4c2.4,0,3.5,1.2,3.5,3.5v3.5
			c0,1.7-0.6,2.5-1.7,3C518.5,147.3,519,148.1,519,149.5z M515.3,139h-1.8v7.1h1.6c1.1,0,1.6-0.5,1.6-1.6v-4.1
			C516.8,139.4,516.3,139,515.3,139z"/>
		<path fill="#717073" d="M530.5,137h2.1l-3,19h-2.4l-3-19h2.2l2,14.5L530.5,137z"/>
		<path fill="#717073" d="M544.1,137v2h-3.8v6.3h3.6v2h-3.6v6.7h3.8v2h-6V137H544.1z"/>
		<path fill="#717073" d="M556.1,137h2.1v18.9h-2.7l-3.4-14.8v14.8H550V137h3l3.1,13.7V137z"/>
		<path fill="#717073" d="M566.4,155.9V139h-2.8v-2h7.8v2h-2.8v16.9H566.4z"/>
		<path fill="#717073" d="M579,155.9h-2.2V137h2.2V155.9z"/>
		<path fill="#717073" d="M589.4,156.1h-0.8c-2.4,0-3.5-1.2-3.5-3.5v-12.2c0-2.3,1.2-3.5,3.5-3.5h0.8c2.4,0,3.5,1.2,3.5,3.5v12.2
			C592.9,154.9,591.7,156.1,589.4,156.1z M589.3,138.8h-0.7c-1,0-1.4,0.5-1.4,1.4v12.4c0,1,0.5,1.4,1.4,1.4h0.7c1,0,1.4-0.5,1.4-1.4
			v-12.4C590.7,139.3,590.3,138.8,589.3,138.8z"/>
		<path fill="#717073" d="M605.1,137h2.1v18.9h-2.7l-3.4-14.8v14.8H599V137h3l3.1,13.7V137z"/>
	</g>
	<g>
		<path fill="#717073" d="M629,48.9h-2.2v6.3h-0.9v-6.3h-2.2v-0.7h5.3V48.9z M637.4,55.2h-0.9v-6.2h0l-2.4,6.2h-0.6l-2.4-6.2h0v6.2
			h-0.9v-7h1.6l2,5.1h0l2-5.1h1.6V55.2z"/>
	</g>
</g>
<g>
	<path fill="#FFFFFF" d="M13.7,6.6l-3.7,13c2.1-1.3,3.7-2,4.9-2c1.5,0,2.6,0.6,3.4,1.9s1.2,2.7,1.2,4.4c0,3.2-1.2,6.1-3.5,8.8
		c-2.3,2.7-4.6,4-6.9,4c-1.4,0-2.6-0.4-3.5-1.3s-1.4-2-1.4-3.6c0-1.5,0.6-4.2,1.8-8.3l4-13.6C10,9.4,10.1,9,10.1,8.7
		c0-0.8-0.7-1.3-2.1-1.3c-0.3,0-0.5-0.2-0.5-0.4c0-0.2,0.1-0.3,0.4-0.3l3.5,0.1C12.1,6.7,12.9,6.7,13.7,6.6z M9.8,35.6
		c1.7,0,3.2-1.2,4.6-3.7s2-5.4,2-8.6c0-1.5-0.2-2.7-0.6-3.4c-0.4-0.8-1-1.1-1.8-1.1c-1,0-2.1,0.6-3.2,1.8c-1.1,1.2-2,3-2.6,5.4
		s-1,4.2-1,5.5c0,1.4,0.2,2.5,0.7,3.2C8.3,35.2,8.9,35.6,9.8,35.6z"/>
	<path fill="#FFFFFF" d="M25.4,28.6c-0.5,2-0.7,3.5-0.7,4.5c0,0.6,0.2,1.2,0.5,1.7s0.8,0.7,1.4,0.7c0.9,0,1.8-0.4,2.8-1.1
		c1-0.7,1.8-1.6,2.5-2.6c0.3-0.5,0.6-0.8,0.9-0.8c0.3,0,0.4,0.1,0.4,0.4c0,0.7-0.8,1.8-2.4,3.1c-1.6,1.4-3.3,2-5,2
		c-1.3,0-2.4-0.5-3.1-1.5c-0.8-1-1.1-2.1-1.1-3.4c0-2.8,1.3-5.8,3.8-9.2c2.5-3.4,5-5,7.3-5c0.8,0,1.5,0.3,2.1,0.9
		c0.6,0.6,0.8,1.2,0.8,2c0,1.4-0.8,2.9-2.4,4.3C31.6,26.3,29,27.5,25.4,28.6z M25.7,27.6c2.2-1,4-2.2,5.5-3.7
		c1.5-1.5,2.2-2.9,2.2-4.1c0-0.3-0.1-0.5-0.3-0.8s-0.5-0.4-0.9-0.4c-0.9,0-2,0.6-3.2,1.9C27.7,21.7,26.7,24.1,25.7,27.6z"/>
	<path fill="#FFFFFF" d="M44.3,25.3c1.5-2.6,3-4.5,4.3-5.8c1.3-1.3,2.6-1.9,3.8-1.9c0.7,0,1.2,0.2,1.6,0.7c0.4,0.5,0.5,1.1,0.5,1.7
		c0,0.8-0.1,1.7-0.4,2.5c-0.2,0.9-0.8,2.6-1.8,5.3c-1.3,3.6-1.9,5.7-1.9,6.3c0,0.5,0.2,0.7,0.6,0.7c0.4,0,1-0.3,1.7-1
		s1.4-1.3,1.7-1.9c0.4-0.7,0.7-1,0.9-1c0.2,0,0.4,0.1,0.4,0.4c0,0.6-0.7,1.6-2.2,3c-1.5,1.4-2.9,2.2-4.3,2.2c-1.3,0-2-0.6-2-1.7
		c0-1.2,1.1-4.5,3.2-10.1c0.8-2.1,1.2-3.7,1.2-4.8c0-0.3-0.1-0.6-0.2-0.7c-0.1-0.2-0.3-0.2-0.6-0.2c-0.4,0-1.2,0.6-2.4,1.7
		c-1.2,1.1-2.5,3.1-4.1,5.9c-1.5,2.8-2.8,5.4-3.7,7.8c-0.6,1.5-1,2.2-1.2,2.2c-1.4,0-2.1-0.2-2.1-0.6l0.1-0.2l3.7-10.6
		c1-2.6,1.4-4.4,1.4-5.4c0-0.4-0.2-0.7-0.6-0.7c-0.4,0-0.9,0.4-1.8,1.1c-0.8,0.7-1.5,1.4-1.9,2c-0.4,0.5-0.7,0.7-0.9,0.7
		c-0.2,0-0.3-0.1-0.3-0.3c0-0.5,0.8-1.4,2.4-3c1.6-1.5,3.1-2.3,4.5-2.3c0.5,0,0.8,0.2,1.1,0.5c0.2,0.3,0.4,0.7,0.4,1
		C45.4,19.7,45.1,21.8,44.3,25.3z"/>
	<path fill="#FFFFFF" d="M61.9,28.6c-0.5,2-0.7,3.5-0.7,4.5c0,0.6,0.2,1.2,0.5,1.7s0.8,0.7,1.4,0.7c0.9,0,1.8-0.4,2.8-1.1
		c1-0.7,1.8-1.6,2.5-2.6c0.3-0.5,0.6-0.8,0.9-0.8c0.3,0,0.4,0.1,0.4,0.4c0,0.7-0.8,1.8-2.4,3.1c-1.6,1.4-3.3,2-5,2
		c-1.3,0-2.4-0.5-3.1-1.5c-0.8-1-1.1-2.1-1.1-3.4c0-2.8,1.3-5.8,3.8-9.2c2.5-3.4,5-5,7.3-5c0.8,0,1.5,0.3,2.1,0.9
		c0.6,0.6,0.8,1.2,0.8,2c0,1.4-0.8,2.9-2.4,4.3C68.2,26.3,65.6,27.5,61.9,28.6z M62.2,27.6c2.2-1,4-2.2,5.5-3.7
		c1.5-1.5,2.2-2.9,2.2-4.1c0-0.3-0.1-0.5-0.3-0.8s-0.5-0.4-0.9-0.4c-0.9,0-2,0.6-3.2,1.9C64.3,21.7,63.2,24.1,62.2,27.6z"/>
	<path fill="#FFFFFF" d="M81.9,19.5l-4.8,17.1c-1.2,3.9-2.6,6.8-4.3,8.7C71,47.1,69,48,66.8,48c-1.3,0-2.4-0.4-3.3-1.1
		c-0.9-0.7-1.3-1.5-1.3-2.5c0-0.6,0.2-1.2,0.6-1.6c0.4-0.4,0.9-0.7,1.4-0.7c0.5,0,0.9,0.2,1.3,0.5c0.3,0.3,0.5,0.7,0.5,1.1
		c0,0.3-0.1,0.6-0.3,1c-0.2,0.4-0.3,0.8-0.3,1c0,0.3,0.2,0.6,0.5,0.9c0.3,0.3,0.8,0.4,1.3,0.4c2,0,3.7-1.7,5.2-5.1
		c1.4-3.4,3.1-9,5.1-16.7c0.8-3,1.3-4.9,1.5-5.7l-4.6,0.1l0.3-1.2c1.2-0.1,2.7-0.1,4.6-0.2c1-3.9,2.3-6.9,4.1-8.8
		c1.8-1.9,3.8-2.9,6.1-2.9c1.3,0,2.4,0.3,3.1,1c0.8,0.7,1.1,1.5,1.1,2.4c0,0.5-0.2,1-0.5,1.4c-0.3,0.4-0.8,0.6-1.4,0.6
		c-0.5,0-0.9-0.1-1.2-0.4s-0.5-0.7-0.5-1.1c0-0.3,0.2-0.7,0.5-1.2C90.9,9,91,8.7,91,8.5c0-0.3-0.1-0.6-0.4-0.7
		c-0.3-0.2-0.6-0.2-1.2-0.2c-1.4,0-2.7,0.7-3.8,2.1c-1.1,1.4-2.2,4.2-3.3,8.4c0.2,0.1,1.6,0.1,4.1,0.1c0,0.1-0.1,0.3-0.1,0.6
		c0,0.3-0.1,0.5-0.1,0.7C84.8,19.4,83.3,19.4,81.9,19.5z"/>
	<path fill="#FFFFFF" d="M89.7,34.9c0,0.2,0.1,0.4,0.2,0.6c0.1,0.1,0.3,0.2,0.5,0.2c0.4,0,1.1-0.3,1.9-0.8c0.8-0.5,1.6-1.1,2.3-1.9
		c0.3-0.3,0.6-0.5,0.8-0.5c0.3,0,0.4,0.1,0.4,0.3c0,0.5-0.7,1.3-2.2,2.3c-1.5,1-2.8,1.6-4.1,1.6c-0.8,0-1.4-0.2-1.8-0.5
		c-0.4-0.3-0.6-0.7-0.6-1.1c0-0.7,0.8-2.9,2.4-6.8c2-4.9,3.1-7.7,3.1-8.4c0-0.3,0-0.5-0.1-0.6c-0.1-0.1-0.2-0.2-0.4-0.2
		c-0.6,0-1.6,0.7-3,2c-0.5,0.5-0.9,0.8-1.1,0.8c-0.2,0-0.3-0.1-0.3-0.3c0-0.4,0.8-1.1,2.3-2.3c1.5-1.2,2.9-1.7,4.1-1.7
		c0.5,0,0.9,0.2,1.3,0.6c0.4,0.4,0.5,0.8,0.5,1.2c0,0.5-0.1,1-0.3,1.5c-0.2,0.5-1.3,3.1-3.2,7.8C90.5,32.5,89.7,34.6,89.7,34.9z
		 M96.7,7.1c0.5,0,0.9,0.2,1.2,0.5c0.3,0.3,0.5,0.7,0.5,1.2c0,0.5-0.2,0.9-0.5,1.2c-0.3,0.3-0.7,0.5-1.2,0.5c-0.5,0-0.9-0.2-1.2-0.5
		S95,9.3,95,8.8c0-0.5,0.2-0.9,0.5-1.2C95.8,7.2,96.2,7.1,96.7,7.1z"/>
	<path fill="#FFFFFF" d="M106.6,19c-0.1,0.4-0.5,1.6-1.1,3.4c-2.1,6.1-3.2,9.8-3.2,11.1c0,0.9,0.3,1.3,1,1.3c1.1,0,2.7-1.2,4.8-3.7
		c0.3-0.3,0.5-0.5,0.7-0.5c0.3,0,0.4,0.1,0.4,0.3c0,0.4-0.9,1.4-2.7,3.1c-1.8,1.7-3.6,2.6-5.6,2.6c-0.7,0-1.2-0.2-1.5-0.6
		c-0.3-0.4-0.5-0.8-0.5-1.2c0-1,0.3-2.3,0.9-4c0-0.1,1.4-4,4-11.8l-2,0l-1.4,0.1c-0.2,0-0.3-0.1-0.3-0.3c0-0.4,0-0.7,0.1-0.7
		c0.1-0.1,0.5-0.1,1.2-0.2c0.7-0.1,1.7-0.1,2.9-0.1c0.4-1.2,0.8-2.6,1.3-4.1l0.8-2.5c0-0.1,0.1-0.2,0.3-0.2c0.5,0,1,0.1,1.5,0.2
		c0.5,0.1,0.7,0.3,0.7,0.4l-0.1,0.2l-2,6l2.7,0.1c0.9,0,1.3,0.1,1.4,0.1c0,0,0.1,0.1,0.1,0.2c0,0.7-0.1,1-0.3,1l-1.6-0.1L106.6,19z"
		/>
	<path fill="#FFFFFF" d="M114.7,34.9c0,0.2,0.1,0.4,0.2,0.6c0.1,0.1,0.3,0.2,0.5,0.2c0.4,0,1.1-0.3,1.9-0.8c0.8-0.5,1.6-1.1,2.3-1.9
		c0.3-0.3,0.6-0.5,0.8-0.5c0.3,0,0.4,0.1,0.4,0.3c0,0.5-0.7,1.3-2.2,2.3c-1.5,1-2.8,1.6-4.1,1.6c-0.8,0-1.4-0.2-1.8-0.5
		c-0.4-0.3-0.6-0.7-0.6-1.1c0-0.7,0.8-2.9,2.4-6.8c2-4.9,3.1-7.7,3.1-8.4c0-0.3,0-0.5-0.1-0.6c-0.1-0.1-0.2-0.2-0.4-0.2
		c-0.6,0-1.6,0.7-3,2c-0.5,0.5-0.9,0.8-1.1,0.8c-0.2,0-0.3-0.1-0.3-0.3c0-0.4,0.8-1.1,2.3-2.3c1.5-1.2,2.9-1.7,4.1-1.7
		c0.5,0,0.9,0.2,1.3,0.6c0.4,0.4,0.5,0.8,0.5,1.2c0,0.5-0.1,1-0.3,1.5c-0.2,0.5-1.3,3.1-3.2,7.8C115.4,32.5,114.7,34.6,114.7,34.9z
		 M121.7,7.1c0.5,0,0.9,0.2,1.2,0.5c0.3,0.3,0.5,0.7,0.5,1.2c0,0.5-0.2,0.9-0.5,1.2c-0.3,0.3-0.7,0.5-1.2,0.5
		c-0.5,0-0.9-0.2-1.2-0.5S120,9.3,120,8.8c0-0.5,0.2-0.9,0.5-1.2C120.8,7.2,121.2,7.1,121.7,7.1z"/>
	<path fill="#FFFFFF" d="M130.9,25.3c1.5-2.6,3-4.5,4.3-5.8c1.3-1.3,2.6-1.9,3.8-1.9c0.7,0,1.2,0.2,1.6,0.7c0.4,0.5,0.5,1.1,0.5,1.7
		c0,0.8-0.1,1.7-0.4,2.5c-0.2,0.9-0.8,2.6-1.8,5.3c-1.3,3.6-1.9,5.7-1.9,6.3c0,0.5,0.2,0.7,0.6,0.7c0.4,0,1-0.3,1.7-1
		s1.4-1.3,1.7-1.9c0.4-0.7,0.7-1,0.9-1c0.2,0,0.4,0.1,0.4,0.4c0,0.6-0.7,1.6-2.2,3c-1.5,1.4-2.9,2.2-4.3,2.2c-1.3,0-2-0.6-2-1.7
		c0-1.2,1.1-4.5,3.2-10.1c0.8-2.1,1.2-3.7,1.2-4.8c0-0.3-0.1-0.6-0.2-0.7c-0.1-0.2-0.3-0.2-0.6-0.2c-0.4,0-1.2,0.6-2.4,1.7
		c-1.2,1.1-2.5,3.1-4.1,5.9c-1.5,2.8-2.8,5.4-3.7,7.8c-0.6,1.5-1,2.2-1.2,2.2c-1.4,0-2.1-0.2-2.1-0.6l0.1-0.2l3.7-10.6
		c1-2.6,1.4-4.4,1.4-5.4c0-0.4-0.2-0.7-0.6-0.7c-0.4,0-0.9,0.4-1.8,1.1c-0.8,0.7-1.5,1.4-1.9,2c-0.4,0.5-0.7,0.7-0.9,0.7
		c-0.2,0-0.3-0.1-0.3-0.3c0-0.5,0.8-1.4,2.4-3c1.6-1.5,3.1-2.3,4.5-2.3c0.5,0,0.8,0.2,1.1,0.5c0.2,0.3,0.4,0.7,0.4,1
		C132,19.7,131.6,21.8,130.9,25.3z"/>
	<path fill="#FFFFFF" d="M160.5,20.7c0.4,0.7,0.6,1.4,0.6,2.3c0,1.3-0.3,2.5-0.9,3.7c-0.6,1.2-1.5,2.2-2.6,2.9
		c-1.1,0.8-2.1,1.3-3,1.5c-0.9,0.2-2,0.4-3.4,0.4c-2.5,0-3.8,0.5-3.8,1.2c0,0.9,1.3,1.5,3.9,2c2.6,0.5,4.5,0.9,5.6,1.3
		s1.9,1,2.5,1.9s0.9,1.7,0.9,2.6c0,1.9-1,3.6-3.1,5.1c-2,1.6-4.7,2.3-7.9,2.3c-2.5,0-4.5-0.5-6-1.4c-1.5-0.9-2.2-2-2.2-3.3
		c0-1.1,0.6-2.3,1.9-3.5c1.2-1.2,2.8-2.2,4.8-3c-1.8-0.7-2.6-1.6-2.6-2.9c0-0.7,0.3-1.4,1-2c0.7-0.6,1.7-1,3.1-1.2
		c-0.8-0.7-1.4-1.4-1.8-2.2c-0.4-0.8-0.6-1.6-0.6-2.5c0-2.3,0.9-4.3,2.6-6c1.7-1.7,3.7-2.5,6.1-2.5c1,0,1.9,0.2,2.6,0.6
		s1.4,1,1.9,1.8c1.4-1.6,2.7-2.4,3.8-2.4c0.7,0,1.3,0.2,1.8,0.7c0.5,0.4,0.7,0.9,0.7,1.5c0,0.4-0.1,0.7-0.4,1.1
		c-0.3,0.3-0.6,0.5-1,0.5c-0.5,0-1-0.3-1.5-0.9c-0.5-0.6-0.9-0.9-1.2-0.9C161.8,19.4,161.2,19.8,160.5,20.7z M149.3,37.5
		c-1.8,0.3-3.2,1.1-4.1,2.2c-0.9,1.2-1.3,2.3-1.3,3.5c0,1.1,0.5,2.1,1.6,2.8c1,0.7,2.5,1.1,4.4,1.1c2.3,0,4.1-0.5,5.7-1.6
		s2.3-2.3,2.3-3.7c0-1.1-0.5-1.9-1.5-2.5c-1-0.6-3.1-1.2-6.3-1.7L149.3,37.5z M155.2,18.4c-1.4,0-2.7,0.9-3.8,2.6
		c-1.1,1.8-1.6,3.8-1.6,6c0,1.1,0.3,1.9,0.8,2.5c0.6,0.6,1.2,0.9,1.9,0.9c1.5,0,2.8-0.9,3.9-2.8c1-1.9,1.6-3.8,1.6-5.6
		c0-1.2-0.3-2.1-0.8-2.7C156.6,18.8,156,18.4,155.2,18.4z"/>
</g>
</svg>
