<?xml version="1.0" encoding="utf-8"?>
<!-- Generator: Adobe Illustrator 19.1.0, SVG Export Plug-In . SVG Version: 6.00 Build 0)  -->
<!DOCTYPE svg PUBLIC "-//W3C//DTD SVG 1.1//EN" "http://www.w3.org/Graphics/SVG/1.1/DTD/svg11.dtd">
<svg version="1.1" id="Layer_1" xmlns="http://www.w3.org/2000/svg" xmlns:xlink="http://www.w3.org/1999/xlink" x="0px" y="0px"
	 viewBox="5.5 4 600.6 491.1" enable-background="new 5.5 4 600.6 491.1" xml:space="preserve">
<g>
	<path fill="#FFFFFF" d="M155.4,212.3c0,0.8-1.2,2.2-3.6,4.3c-3.4,2.8-5.9,5.3-7.5,7.3c-1.9,2.4-4.7,7.5-8.2,15.3
		c-4.3,9.3-8.1,16.6-11.2,21.8c4.5-2.5,8.7-3.7,12.6-3.7c1,0,1.5,0.5,1.5,1.5c0,0.3-1.4,0.8-4.1,1.4c-4,0.7-7.8,2.2-11.6,4.4
		c-14.2,19.5-24.1,32.4-29.8,38.6c-14.2,15.8-26.1,23.7-35.9,23.7c-1.6,0-3.2-0.6-4.9-1.7c-2.5-1.6-3.7-3.8-3.7-6.6
		c0-6.8,7.1-15.5,21.3-26.2c11.9-9,27.3-18.1,46.1-27.6c4.1-6.8,9.5-16.8,16.2-29.9c-29.6,22.6-59.7,33.9-90.2,33.9
		c-10.8,0-19.6-3.3-26.5-9.9s-10.4-15-10.4-25.4c0-13.5,6.4-27.4,19.1-41.9c11.9-13.5,26.9-24.7,45.1-33.5
		c18.6-9.2,36.1-13.8,52.6-13.8c8.6,0,15.8,2,21.4,6c5.7,4,8.5,9,8.5,15.1c0,10.5-7,21.2-21.1,32s-28.1,16.2-42.2,16.2
		c-6.2,0-9.4-2.6-9.4-7.7c0-1.4,0.6-2.7,1.9-4.1c1.2-1.4,2.6-2,3.9-2c2.6,0,3.9,0.4,3.9,1.2c0,0.7-0.1,1.3-0.3,2
		c-0.2,0.6-0.3,1.2-0.3,1.6c0,2.5,2.4,3.7,7.3,3.7c10.3,0,21-4.2,32-12.6c11.6-8.7,17.4-17.9,17.4-27.4c0-5.6-2.6-10-7.6-13.3
		c-5.1-3.3-12.1-4.9-21.1-4.9c-16,0-32.1,4-48.4,12.1c-15.7,7.8-28.7,17.9-38.7,30.1c-10.6,12.8-16,25.6-16,38.3
		c0,9.3,3.7,17.3,11.2,24s17,10,28.5,10c12.2,0,26.8-4,43.7-11.9c15-6.9,26-13.9,33.1-20.9c4.6-4.7,9.3-9.4,13.9-14.1
		c4.3-4.1,7.7-6.4,10.2-6.8C154.9,210.7,155.4,211.2,155.4,212.3z M115.2,268.6c-16.8,8.3-30.5,16.5-41.2,24.8
		c-12,9.2-18,16.7-18,22.7c0,1.2,0.7,2.3,2.2,3.3s3.2,1.4,5.3,1.4c7.6,0,17.9-7.7,30.8-23.1C102.9,287.5,109.9,277.8,115.2,268.6z"
		/>
	<path fill="#FFFFFF" d="M226.8,240.2c0,0.7-0.2,1.2-0.7,1.7C203,261.3,187,271,178,271c-5.2,0-8.2-4.1-8.8-12.3
		c-3,3.1-7,5.8-12.1,8.2c-4.3,1.9-7.3,2.9-9,2.9c-1.8,0-3.4-0.7-4.8-2c-1.4-1.4-2.1-3-2.1-4.9c0-3.9,1.6-7.4,4.7-10.5
		c3.1-3.2,9.3-7.7,18.6-13.6c1.1,0,1.4,0.7,0.9,2.2c-2.7,1.9-5.4,3.9-8.2,6c-5.2,4.3-7.8,8.3-7.8,11.9c0,3.5,1,5.3,2.9,5.3
		c0.8,0,2.8-0.7,6.1-2.2c3.7-1.7,6.7-3.4,8.9-5.2c2.2-1.8,5.7-5.7,10.5-11.8c3.9-4.9,6.5-7.3,8-7.3s2.2,0.6,2.2,1.9
		c0,1-2,3.4-5.9,7.1c-3.9,3.7-5.9,6.8-5.9,9.3c0,2.4,0.7,4.5,2.2,6.5c1.5,1.9,2.9,2.9,4.3,2.9c4.4,0,11.7-3.4,21.8-10.2
		c2.8-1.9,9.8-7,20.8-15.3c0.3-0.2,0.7-0.3,1-0.2C226.6,239.5,226.8,239.8,226.8,240.2z"/>
	<path fill="#FFFFFF" d="M291.8,240.2c0,0.7-0.2,1.2-0.7,1.7c-10.9,9-18.5,15-22.8,17.9c-10.5,7.2-19.3,10.8-26.2,10.8
		c-5.9,0-8.8-4.2-8.8-12.6c-2.7,2.3-6.4,4.5-10.9,6.8c-4.9,2.4-8.7,3.6-11.4,3.6c-2,0-4-0.5-5.8-1.4c-1.8-1-2.7-2.2-2.7-3.8
		c0-4.6,4.3-10.3,12.8-17c8.6-6.7,16.1-10,22.7-10c4,0,6,1,6,2.9s-0.7,3.5-2,4.6s-2.6,1.6-4,1.4c0.1,0-0.2-0.8-1-2.4
		c-0.8-1.6-2-2.4-3.7-2.4c-4.3,0-9.1,2.3-14.4,6.8c-5.3,4.5-7.9,8.6-7.9,12.1c0,2.3,0.8,3.4,2.4,3.4c5.4,0,11.4-2.2,17.9-6.5
		c1.6-1.1,3.9-3.5,7-7c2.3-2.6,4.1-3.8,5.4-3.6c1.4,0,2,0.6,2,1.7c0,0.8-0.9,2.7-2.6,5.8c-1.8,3.1-2.6,5.3-2.6,6.5
		c0,3.9,1.9,5.9,5.8,5.9c4.9,0,12.5-3.5,22.8-10.5c2.6-1.7,9.6-6.8,21.1-15.4c0.3-0.2,0.7-0.3,1-0.2
		C291.6,239.5,291.8,239.8,291.8,240.2z"/>
	<path fill="#FFFFFF" d="M349.5,240c0,0.7-0.2,1.2-0.7,1.7c-11.1,9.3-18.9,15.4-23.3,18.4c-11.2,7.5-21.1,11.2-29.6,11.2
		c-2.3,0-4.3-0.9-6.2-2.7c-1.9-1.8-2.8-3.9-2.8-6.1c0-2,1.5-4.8,4.4-8.3c2.7-2.8,5.4-5.7,8-8.7c-2,0-4.3,0.2-6.9,0.6
		c-2.6,0.4-4.6,0.6-6,0.6h-0.5c-11.7,9.9-21.3,16.4-28.9,19.7c-1.8,0-2.7-0.3-2.7-0.9c0-0.8,0.5-1.8,1.5-2.9c6-2.4,15-8.1,27.1-17.2
		c-0.8-0.8-1.2-1.6-1.2-2.4c0-2.2,1.8-5.1,5.4-8.9c3.6-3.8,6.5-5.7,8.8-5.7c1.9,0,2.9,0.7,2.9,2.1c0,2.5-1.7,5.4-5.1,8.6
		c4.5-0.9,7.4-1.4,8.7-1.4c3.1,0,4.7,1.1,4.7,3.4c0,2.4-2.2,5.6-6.7,9.8c-4.5,4.1-6.7,7.3-6.7,9.6c0,1.6,0.6,3,1.8,4.2
		c1.2,1.2,2.6,1.8,4.3,1.8c6.2,0,15-3.7,26.3-11.1c2.8-1.8,10.1-7.2,21.9-16.2c0.3-0.2,0.7-0.3,1-0.2
		C349.3,239.3,349.5,239.6,349.5,240z"/>
	<path fill="#FFFFFF" d="M450.1,171.6c0,8.6-13.5,25.1-40.5,49.3c-9.3,8.3-23.5,19.5-42.5,33.5c1.5,8.3,5.6,12.4,12.2,12.4
		c4.8,0,11.3-2.4,19.6-7.1c5.7-3.3,12.2-7.8,19.6-13.4l9.4-7.1c0.7,0,1,0.5,1,1.4s-4.3,4.8-12.9,11.6c-8.1,6.4-14,10.7-17.9,12.9
		c-7.6,4.5-14.4,6.8-20.4,6.8c-7.6,0-12.5-4.8-14.8-14.3c-4.7,2.6-9.3,5.2-14,7.7c-5.2,2.5-10.2,3.7-15,3.7c-2.4,0-4.4-0.7-6.1-2.1
		s-2.6-3.3-2.6-5.5c0-3.9,3-8.2,8.8-13.1c8.5-7,16.6-10.5,24.2-10.5c1.8,0,3.3,0.5,4.6,1.4c1.2,1,1.9,2.1,1.9,3.3
		c0,2.7-0.9,4.2-2.7,4.4c-0.6,0.1-1-0.3-1.3-1.3s-0.6-1.9-0.9-2.9s-2.2-1.4-5.6-1.4c-4.3,0-10,3.5-17,10.5c-2.9,3-4.4,5.6-4.4,8
		c0,2.6,1.7,3.9,5.1,3.9c2.4,0,6.3-1.2,11.7-3.6c5-2.2,9.4-4.5,13.1-7c1.8-6.7,4.4-12.9,7.7-18.7c0.3-0.7,2.8-4.6,7.5-11.7
		c8.8-13.6,19.3-26.3,31.3-37.9c14.3-13.8,25.6-20.8,34-20.8C447.7,164,450.1,166.5,450.1,171.6z M443.4,171.6
		c0-2.8-1.4-4.3-4.1-4.3c-4.9,0-12.6,4.8-23.2,14.5c-10.6,9.6-20.5,20.8-29.6,33.3c-10.1,13.7-16.4,25.4-19,35
		c15.4-11.3,29.2-22.3,41.4-33c8.9-7.7,16.7-15.9,23.4-24.7C439.7,183.3,443.4,176.3,443.4,171.6z"/>
	<path fill="#FFFFFF" d="M467.6,240.2c0,0.7-0.2,1.2-0.7,1.7c-11.3,9.5-18.4,15.3-21.3,17.4c-9.3,6.8-16.3,10.2-21.1,10.2
		c-3.1,0-5.9-0.9-8.4-2.6c-2.6-1.8-3.8-3.8-3.8-6.2c0-4,2-8.6,6.1-13.8c3.9-4.9,7.1-7.6,9.7-8.2c1.4,0,2,0.5,2,1.4
		c0,0.8-1.6,3.1-4.8,7c-3.2,3.9-4.9,7.4-4.9,10.7c0,4.3,1.9,6.5,5.8,6.5c4.7,0,17.9-8.2,39.6-24.7c0.3-0.2,0.7-0.3,1-0.2
		C467.4,239.5,467.6,239.8,467.6,240.2z M441.9,228.5c0,3-2,4.4-6.1,4.4s-6.1-1.5-6.1-4.4c0-3.1,2-4.6,6.1-4.6
		C439.8,223.9,441.9,225.4,441.9,228.5z"/>
	<path fill="#FFFFFF" d="M532.6,240.2c0,0.7-0.2,1.2-0.7,1.7c-10.9,9-18.5,15-22.8,17.9c-10.5,7.2-19.3,10.8-26.2,10.8
		c-5.9,0-8.8-4.2-8.8-12.6c-2.7,2.3-6.4,4.5-10.9,6.8c-4.9,2.4-8.7,3.6-11.4,3.6c-2,0-4-0.5-5.8-1.4c-1.8-1-2.7-2.2-2.7-3.8
		c0-4.6,4.3-10.3,12.8-17c8.6-6.7,16.1-10,22.7-10c4,0,6,1,6,2.9s-0.7,3.5-2,4.6s-2.6,1.6-4,1.4c0.1,0-0.2-0.8-1-2.4
		c-0.8-1.6-2-2.4-3.7-2.4c-4.3,0-9.1,2.3-14.4,6.8s-7.9,8.6-7.9,12.1c0,2.3,0.8,3.4,2.4,3.4c5.4,0,11.4-2.2,17.9-6.5
		c1.6-1.1,3.9-3.5,7-7c2.3-2.6,4.1-3.8,5.4-3.6c1.4,0,2,0.6,2,1.7c0,0.8-0.9,2.7-2.6,5.8c-1.8,3.1-2.6,5.3-2.6,6.5
		c0,3.9,1.9,5.9,5.8,5.9c4.9,0,12.5-3.5,22.8-10.5c2.6-1.7,9.6-6.8,21.1-15.4c0.3-0.2,0.7-0.3,1-0.2
		C532.3,239.5,532.6,239.8,532.6,240.2z"/>
	<path fill="#FFFFFF" d="M606.1,240.2c0,0.7-0.2,1.2-0.7,1.7c-10.3,8.6-17.4,14.2-21.3,16.8c-9.6,6.5-17.9,9.7-24.8,9.7
		c-6,0-9-3.2-9-9.5c0-2.5,0.6-6,1.7-10.4c-7.9,4.5-16.3,9.6-25,15.1c-6.2,4.1-9.6,6.1-10,6.1c-0.2,0-0.7-0.2-1.3-0.7s-0.9-0.8-0.9-1
		c0-1.5,2-5,6-10.5c4.5-6.5,7.1-10.4,7.8-11.9c-0.3-0.8-0.5-1.7-0.5-2.7c0-0.9,0.7-1.8,2-2.7c1.4-0.9,2.5-1.4,3.4-1.4
		c3.6,0,5.4,1.4,5.4,4.1c0,0.9-1.7,3.6-5.1,8c-3.1,4-5.4,6.8-7,8.3c20.1-13.6,32.9-20.4,38.6-20.4c0.8,0,1.2,0.7,1.2,2
		c0,0.2-1.6,2.2-4.8,5.9s-4.8,7.2-4.8,10.6c0,3.9,2.7,5.8,8,5.8c4.2,0,10.9-3.1,20-9.4c1.8-1.1,8.3-5.9,19.5-14.3
		c0.3-0.2,0.7-0.3,1-0.2C605.8,239.5,606.1,239.8,606.1,240.2z"/>
</g>
<g>
	<path fill="#FFFFFF" d="M312,309.9c0,11.7-7.1,23.3-21.3,34.7c-13.5,10.9-26.2,16.3-38.1,16.3c-1.5,0-3.1-0.3-4.8-1
		c-2.3-0.9-3.4-2.2-3.4-3.7c0-1.9,0.8-3.7,2.5-5.3c1.7-1.6,3.4-2.4,5.1-2.4c0.9,3.4,1.7,5.5,2.3,6.4s1.8,1.3,3.5,1.3
		c7.1,0,14.5-2.4,22.2-7.3c8.1-5.1,13.7-9.4,16.6-12.8c5-5.7,7.5-12.6,7.5-20.9c0-12.9-8-19.4-24.1-19.4c-13.9,0-28.8,4.5-44.7,13.4
		s-28.9,20.3-39.1,34.1c-11.3,15.2-17,30.7-17,46.4c0,12,3.7,21.4,11.2,28.1s17.8,10,31,10c7.6,0,16.2-1.8,25.9-5.4
		c4.8-1.8,10.3-4.3,16.5-7.3c5-2.6,7.7-3.9,8-3.9c0.7,0,1,0.4,1,1.2c0,2.2-4.8,5.5-14.5,10c-17,7.9-31.5,11.9-43.4,11.9
		c-12.8,0-23.1-3.6-31-10.8c-7.8-7.2-11.7-16.7-11.7-28.5c0-16.4,6.2-33.1,18.7-50c11.7-15.8,26.4-28.9,44.2-39.4
		s34.5-15.7,50.2-15.7c7.7,0,14.1,1.9,19.1,5.6C309.5,299.2,312,304,312,309.9z"/>
	<path fill="#FFFFFF" d="M370.5,399.4c0,0.7-0.2,1.2-0.7,1.7c-23.1,19.4-39.2,29.1-48.2,29.1c-5.2,0-8.2-4.1-8.8-12.3
		c-3,3.1-7,5.8-12.1,8.2c-4.3,1.9-7.3,2.9-9,2.9c-1.8,0-3.4-0.7-4.8-2c-1.4-1.4-2.1-3-2.1-4.9c0-3.9,1.6-7.4,4.7-10.5
		c3.1-3.2,9.3-7.7,18.6-13.6c1.1,0,1.4,0.7,0.9,2.2c-2.7,1.9-5.4,3.9-8.2,6c-5.2,4.3-7.8,8.3-7.8,11.9c0,3.5,1,5.3,2.9,5.3
		c0.8,0,2.8-0.7,6.1-2.2c3.7-1.7,6.7-3.4,8.9-5.2c2.2-1.8,5.7-5.7,10.5-11.8c3.9-4.9,6.5-7.3,8-7.3s2.2,0.6,2.2,1.9
		c0,1-2,3.4-5.9,7.1s-5.9,6.8-5.9,9.3c0,2.4,0.7,4.5,2.2,6.5c1.5,1.9,2.9,2.9,4.3,2.9c4.4,0,11.7-3.4,21.8-10.2
		c2.8-1.9,9.8-7,20.8-15.3c0.3-0.2,0.7-0.3,1-0.2C370.3,398.7,370.5,399,370.5,399.4z"/>
	<path fill="#FFFFFF" d="M399.6,367.8c0,0.5-10.9,13.2-32.8,38.1c4.1-2.2,8.2-4.3,12.2-6.5c5.1-2.3,9.6-3.4,13.6-3.4
		c4.7,0,7,1.9,7,5.8c0,2.7-2,6.2-6,10.5s-9,8-15.1,11.1c-6,3.2-10.9,4.8-14.6,4.8c-1.4,0-2.5-0.6-3.5-1.7s-1.4-2.3-1.4-3.6
		c0.1-3.2,1.1-4.8,3-4.8c1,0,1.7,0.3,2.1,0.9s0.8,1.3,1.1,2.1c0.9,1.7,2.5,2.6,4.7,2.6c3.3,0,7.9-2.5,14-7.5c6-5,9.1-9.2,9.1-12.8
		c0-1.9-1.9-2.9-5.8-2.9c-3.4,0-7,1.1-10.7,3.4c-3.1,2-8.8,6.6-17.3,13.8c-10.9,9.2-22.5,22.1-34.8,38.6c-11,15-16.8,24.6-17.5,28.8
		c-0.1,0.9-0.1,2.8,0,5.6c0,1.4-0.5,2.4-1.6,3.2c-1.1,0.8-2.1,1.2-3,1.2c-1.2,0-2.5-0.3-3.7-1s-1.8-1.5-1.8-2.6
		c0-1.7,0.6-3.5,1.9-5.3c2.6-4,4-6.1,4.1-6.3c6.7-12.3,19.5-29.4,38.5-51.6c8.9-10.5,26.8-30.6,53.8-60.2c1.4-1.5,2.5-2.2,3.4-2.2
		C399.2,366.1,399.6,366.6,399.6,367.8z"/>
</g>
<g>
	<path fill="#FFFFFF" d="M116.1,91.8c0,1.4-1.3,2.2-3.9,2.5c-0.1,0-1.7,0-4.9,0H86.1c-9.1,9.5-14,14.7-14.7,15.5
		c-6.7,7.7-10.1,13.3-10.1,16.6c0,2.2,1.4,3.3,4.2,3.3c3.7,0,8.7-2.2,15.1-6.5c4.3-3.2,8.6-6.4,12.8-9.6c0.2-0.1,0.4-0.2,0.7-0.1
		c0.3,0.1,0.4,0.3,0.4,0.5c0,0.4-0.1,0.8-0.4,1.1c-7,5.8-11.8,9.6-14.6,11.5c-6.7,4.6-12.2,6.9-16.6,6.9c-1.7,0-3-0.6-4.1-1.8
		c-1-1.2-1.6-2.7-1.6-4.4c0-4,3.4-9.8,10.2-17.6c4.9-5.1,9.8-10.2,14.7-15.3l-36.3-1c-0.9,0-1.3-0.6-1-1.7c0.1-0.6,0.8-0.9,2.1-0.9
		h38.8l9-8.8c0.5-0.5,1.3-0.8,2.5-0.8c0.4,0,0.7,0.2,1,0.7c0.2,0.5,0.2,0.9,0,1.1l-8.8,7.8L116.1,91.8z"/>
	<path fill="#FFFFFF" d="M151.3,64.2c0,2.9-3.2,8-9.5,15.3c-11.5,13.3-23,23.4-34.8,30.3c-2,1.3-4,2.6-6,3.8
		c-2.2,1.4-5.2,2.8-8.9,4.2l-5.8,8.5c1.2-0.7,6.9-4.5,17.2-11.3c3.7-2.5,6.2-3.7,7.6-3.7c0.9,0,1.4,0.5,1.4,1.5
		c0,0.4-0.9,1.8-2.7,4.3c-1.8,2.5-2.7,4.6-2.7,6.2c0,1.4,0.2,2.3,0.5,2.8c0.5,0.8,1.7,1.2,3.6,1.2s6.5-2.8,14-8.3l7.8-5.8
		c0.4,0,0.5,0.3,0.5,1c0,0.3-0.8,1.1-2.3,2.3c-2.5,2-4,3.4-4.7,4c-2.1,2-4.6,3.9-7.6,5.8c-4.4,2.7-8,4-10.9,4c-4,0-6-1.7-6-5.2
		c0-1.2,0.3-3.4,0.8-6.4c-0.5,0.1-1.3,0.3-2.3,0.8c-0.6,0.4-4.4,3.2-11.4,8.4c-4,2.9-6.5,4.3-7.6,4.3c-0.6,0-0.9-0.4-0.9-1.1
		c0-1.2,1.2-3.5,3.7-7c4.3-6,7-9.7,7.8-11c6.2-9.7,15.1-20.8,26.7-33.3C131.6,66,140.3,59,144.7,59c1.7,0,3.2,0.5,4.5,1.4
		C150.6,61.6,151.3,62.7,151.3,64.2z M146.7,65.3c0-2-1.1-2.9-3.4-2.9c-2.9,0-7,2.5-12.3,7.5c-3.3,3.3-8.4,8.9-15.2,17
		c-7.1,8.4-12,14.2-14.6,17.4c-4.3,5.6-6.7,9.1-7.1,10.7c3-0.5,8.9-3.9,17.5-10.3c9-6.7,16.8-13.5,23.4-20.4
		C142.8,75.9,146.7,69.6,146.7,65.3z"/>
	<path fill="#FFFFFF" d="M156.4,114c0,0.4-0.1,0.8-0.4,1.1c-7,5.9-11.9,9.7-14.6,11.5c-6.9,4.6-12.9,6.9-18.2,6.9
		c-4.7,0-7.1-2.4-7.1-7.1c0-3.1,1.7-6.5,5.2-10.3s6.5-5.7,9.1-5.7c0.8,0,1.6,0.3,2.3,0.9s1.1,1.3,1.1,2.1c0,1.2-0.6,2.4-1.8,3.5
		s-2.4,2.2-3.6,3.2c-2.1,1.8-4.6,3.4-7.6,4.9c-0.2,1.8,0.4,3.2,1.9,4.1c1.1,0.7,2.3,1.1,3.7,1.1c3.6,0,8.8-2.2,15.5-6.7
		c1.4-0.9,5.9-4.2,13.4-9.8c0.2-0.1,0.4-0.2,0.6-0.1C156.3,113.5,156.4,113.7,156.4,114z M129.4,114.4c0-0.5-0.4-0.8-1.2-0.8
		c-1.2,0-2.7,1-4.6,3s-2.8,3.7-2.8,5.2c0.4-0.1,1-0.3,1.8-0.5C127.2,118.6,129.4,116.3,129.4,114.4z"/>
</g>
<g>
	<g id="angel_1_">
		<g>
			<path fill="#E1BD5C" d="M285.5,190.1c-1-4.7-3.5-7-3.5-7c-12.8-0.6-25-11.5-25-11.5c-8.3-7,2.6-28.8,2.6-28.8
				c-8.2-11.8-21.1-45.9-22.2-72.2c-1.4-35,10-66.6,10-66.6c-24.3,10.2-25.6,78.7-25.6,78.7c-1.3-26.9,7-73.6,7-73.6
				c-23,30.7-12.2,94-12.2,94c-17.3-30.7-1.9-83.8-1.9-83.8c-32.6,32.6-7,97.9-7,97.9c-17.3-16-15.4-74.2-15.4-74.2
				c-22.4,71.7,15.4,97.9,15.4,97.9c-18.6,3.8-30.1-52.5-30.1-52.5c-1.3,55.7,31.4,72.9,31.4,72.9c-7.7,5.8-28.1-21.8-28.1-21.8
				c1.9,20.5,32,35.8,32,35.8l5.1,3.8c-3.8,4.5-21.1-8.3-21.1-8.3c2.6,11.5,32,17.9,32,17.9c-5.9,3.4-21.8-2.6-21.8-2.6
				c33.9,38.4,66.5,30.1,66.5,30.1C287.1,216.4,287.5,200,285.5,190.1z"/>
		</g>
	</g>
	<g id="angel_2_">
		<g>
			<path fill="#E1BD5C" d="M366.3,161.4c0,0,32.6-17.3,31.3-72.9c0,0-11.5,56.3-30.1,52.5c0,0,37.7-26.2,15.4-97.9
				c0,0,1.9,58.2-15.4,74.2c0,0,25.6-65.3-7-97.9c0,0,15.4,53.1-1.9,83.8c0,0,10.9-63.3-12.2-94c0,0,8.3,46.7,7,73.6
				c0,0-1.3-68.5-25.6-78.7c0,0,11.5,31.6,10,66.6c-1.1,26.3-14,60.4-22.2,72.2c0,0,10.9,21.8,2.6,28.8c0,0-12.2,10.9-25,11.5
				c0,0-2.5,2.2-3.5,7c-2,9.9-1.6,26.3,11.8,26.3c0,0,32.6,8.3,66.5-30.1c0,0-15.8,5.9-21.8,2.6c0,0,29.4-6.4,32-17.9
				c0,0-17.3,12.8-21.1,8.3l5.1-3.8c0,0,30.1-15.4,32-35.8C394.4,139.6,374,167.1,366.3,161.4z"/>
		</g>
	</g>
</g>
</svg>
