<?xml version="1.0" encoding="utf-8"?>
<!-- Generator: Adobe Illustrator 19.1.0, SVG Export Plug-In . SVG Version: 6.00 Build 0)  -->
<!DOCTYPE svg PUBLIC "-//W3C//DTD SVG 1.1//EN" "http://www.w3.org/Graphics/SVG/1.1/DTD/svg11.dtd">
<svg version="1.1" id="Layer_1" xmlns="http://www.w3.org/2000/svg" xmlns:xlink="http://www.w3.org/1999/xlink" x="0px" y="0px"
	 viewBox="0 0 417.6 107.7" enable-background="new 0 0 417.6 107.7" xml:space="preserve">
<g>
	<path fill="#FFFFFF" d="M162.5,44.1c0-2.2-1-4-3.1-5.5c-0.9-0.6-1.8-1.1-2.9-1.5c2,2.6,4,5.2,6,7.8
		C162.5,44.6,162.5,44.3,162.5,44.1z"/>
	<path fill="#FFFFFF" d="M132.7,90.3c-5.2,3.9-7.8,7.1-7.8,9.5c0,1,0.4,1.8,1.3,2.4c0.6,0.4,1.2,0.6,1.8,0.6c3.6,0,7.9-2.9,13.1-8.6
		c1.9-2.1,5.1-6.2,9.6-12.4c-0.9-0.3-1.7-0.6-2.6-0.9C142,84.1,136.8,87.2,132.7,90.3z M141.5,92.2c-4.7,5.6-8.4,8.4-11.2,8.4
		c-0.8,0-1.4-0.1-1.9-0.5s-0.8-0.8-0.8-1.2c0-2.2,2.2-4.9,6.6-8.3c3.9-3,8.9-6,15-9C147.1,85,144.6,88.5,141.5,92.2z"/>
	<path fill="#FFFFFF" d="M117.9,53.9c3.6-4.4,8.4-8.1,14.1-11c5.9-2.9,11.8-4.4,17.6-4.4c3.3,0,5.8,0.6,7.7,1.8
		c1.8,1.2,2.8,2.8,2.8,4.8c0,3.5-2.1,6.8-6.3,10c-4,3.1-7.9,4.6-11.6,4.6c-1.8,0-2.7-0.4-2.7-1.3c0-0.1,0-0.4,0.1-0.6
		c0.1-0.3,0.1-0.5,0.1-0.7c0-0.3-0.5-0.4-1.4-0.4c-0.5,0-1,0.2-1.4,0.7c-0.5,0.5-0.7,1-0.7,1.5c0,1.9,1.2,2.8,3.4,2.8
		c5.1,0,10.2-2,15.4-5.9c4.8-3.7,7.3-7.3,7.6-10.8c-2-2.6-4-5.2-6-7.8c-1.5-0.5-3.1-0.7-4.9-0.7c-6,0-12.4,1.7-19.1,5
		c-6.6,3.2-12.1,7.3-16.4,12.2c-3.5,4-5.7,7.8-6.5,11.6c0.9,0.4,1.7,0.8,2.6,1.2C112.5,62.2,114.4,58,117.9,53.9z"/>
	<path fill="#FFFFFF" d="M126.5,80.2c-4.2,0-7.6-1.2-10.4-3.6c-2.7-2.4-4.1-5.3-4.1-8.7c0-0.5,0-1,0.1-1.4c-0.9-0.4-1.7-0.8-2.6-1.2
		c-0.3,1.2-0.4,2.4-0.4,3.6c0,3.8,1.3,6.8,3.8,9.2c2.5,2.4,5.7,3.6,9.6,3.6c6,0,12-1.2,17.9-3.6c-0.6-0.2-1.1-0.4-1.7-0.7
		C134.2,79.2,130.1,80.2,126.5,80.2z"/>
	<path fill="#FFFFFF" d="M156.2,78.6c1-0.2,1.5-0.4,1.5-0.5c0-0.4-0.2-0.5-0.5-0.5c-1.4,0-2.9,0.4-4.6,1.3c1.1-1.9,2.5-4.5,4.1-7.9
		c1.3-2.8,2.3-4.7,3-5.6c0.6-0.7,1.5-1.6,2.7-2.7c0.9-0.8,1.3-1.3,1.3-1.6c0-0.4-0.2-0.6-0.5-0.5c-0.9,0.1-2.1,1-3.7,2.5
		c-1.7,1.7-3.4,3.4-5.1,5.1c-2.6,2.5-6.6,5.1-12,7.6c-1.2,0.6-2.4,1.1-3.6,1.6c0.6,0.2,1.1,0.4,1.7,0.7c5-2,10-4.9,14.9-8.7
		c-2.4,4.8-4.4,8.4-5.9,10.9c-0.4,0.2-0.9,0.4-1.3,0.7c0.9,0.3,1.7,0.6,2.6,0.9c0.4-0.5,0.8-1.1,1.2-1.7
		C153.4,79.4,154.8,78.8,156.2,78.6z"/>
	<path fill="#FFFFFF" d="M161,82.1c0.6,0,1.7-0.4,3.3-1.1c1.9-0.9,3.3-1.9,4.4-3c0.2,3,1.3,4.5,3.2,4.5c2.8,0,7.6-2.7,14.3-8
		c-0.2-0.2-0.4-0.5-0.6-0.7c-2,1.5-3.4,2.5-4.1,2.9c-3.7,2.5-6.3,3.7-7.9,3.7c-0.5,0-1-0.4-1.6-1.1c-0.5-0.7-0.8-1.5-0.8-2.4
		c0-0.9,0.7-2,2.1-3.4c1.4-1.3,2.1-2.2,2.1-2.6c0-0.5-0.3-0.7-0.8-0.7s-1.5,0.9-2.9,2.7c-1.7,2.2-3,3.6-3.8,4.3
		c-0.8,0.7-1.9,1.3-3.2,1.9c-1.2,0.5-1.9,0.8-2.2,0.8c-0.7,0-1.1-0.7-1.1-1.9c0-1.3,0.9-2.8,2.8-4.3c1-0.8,2-1.5,3-2.2
		c0.2-0.5,0.1-0.8-0.3-0.8c-3.4,2.1-5.6,3.8-6.8,4.9c-1.1,1.1-1.7,2.4-1.7,3.8c0,0.7,0.3,1.3,0.8,1.8
		C159.8,81.8,160.4,82.1,161,82.1z"/>
	<path fill="#FFFFFF" d="M189.4,71.9c0.2-0.2,0.3-0.4,0.3-0.6c0-0.1-0.1-0.3-0.2-0.2c-0.1,0-0.3,0-0.4,0.1c-1.3,1-2.5,1.9-3.5,2.6
		c0.2,0.2,0.4,0.5,0.6,0.7C187.2,73.7,188.3,72.8,189.4,71.9z"/>
	<path fill="#FFFFFF" d="M186.8,73.8c1.9-1.6,3.7-2.5,5.2-2.5c0.6,0,1.1,0.3,1.3,0.9s0.4,0.9,0.4,0.9c0.5,0.1,1-0.1,1.5-0.5
		c0.5-0.4,0.7-1,0.7-1.7s-0.7-1.1-2.2-1.1c-2.4,0-5.1,1.2-8.3,3.6c0,0-0.1,0.1-0.1,0.1c0.2,0.3,0.5,0.6,0.7,0.9
		C186.3,74.2,186.6,74,186.8,73.8z"/>
	<path fill="#FFFFFF" d="M181.8,81c0.7,0.3,1.4,0.5,2.1,0.5c1,0,2.4-0.4,4.1-1.3c0.7-0.4,1.4-0.7,2-1.1c-0.3-0.3-0.5-0.6-0.8-0.9
		c-1.6,0.8-3.1,1.2-4.5,1.2c-0.6,0-0.9-0.4-0.9-1.2c0-1.1,0.7-2.4,2.2-3.8c-0.2-0.3-0.5-0.6-0.7-0.9c-3,2.4-4.6,4.5-4.6,6.1
		C180.8,80.2,181.2,80.7,181.8,81z"/>
	<path fill="#FFFFFF" d="M192.1,77.8c0,3.1,1.1,4.6,3.2,4.6c2.5,0,5.7-1.3,9.5-3.9c1.6-1.1,4.3-3.2,8.3-6.5c0.2-0.2,0.3-0.4,0.3-0.6
		c0-0.1-0.1-0.3-0.2-0.3c-0.1,0-0.3,0-0.4,0.1c-4.2,3.1-6.7,5-7.7,5.6c-3.7,2.5-6.5,3.8-8.3,3.8c-1.4,0-2.1-0.7-2.1-2.1
		c0-0.4,0.3-1.2,0.9-2.4c0.6-1.1,0.9-1.8,0.9-2.1c0-0.4-0.2-0.6-0.7-0.6c-0.5-0.1-1.1,0.4-2,1.3c-1.1,1.3-2,2.1-2.5,2.5
		c-0.7,0.5-1.4,0.8-2,1.2c0.3,0.3,0.5,0.6,0.8,0.9C190.8,78.7,191.5,78.2,192.1,77.8z"/>
	<path fill="#FFFFFF" d="M200.7,80.8c2.8-1.2,6.3-3.6,10.5-7.2h0.2c0.5,0,1.2-0.1,2.2-0.2s1.8-0.2,2.5-0.2c-0.9,1.1-1.9,2.1-2.9,3.2
		c-1.1,1.3-1.6,2.3-1.6,3c0,0.8,0.3,1.6,1,2.2c0.7,0.7,1.4,1,2.3,1c3.1,0,6.7-1.3,10.8-4.1c1.6-1.1,4.4-3.3,8.5-6.7
		c0.2-0.2,0.3-0.4,0.3-0.6c0-0.1-0.1-0.3-0.2-0.4c-0.1,0-0.3,0-0.4,0.1c-4.3,3.3-7,5.2-8,5.9c-4.1,2.7-7.3,4-9.6,4
		c-0.6,0-1.1-0.2-1.6-0.7c-0.4-0.4-0.7-0.9-0.7-1.5c0-0.8,0.8-2,2.4-3.5c1.6-1.5,2.4-2.7,2.4-3.6c0-0.8-0.6-1.2-1.7-1.2
		c-0.5,0-1.5,0.2-3.2,0.5c1.2-1.2,1.9-2.2,1.9-3.1c0-0.5-0.4-0.8-1.1-0.8c-0.8,0-1.9,0.7-3.2,2.1c-1.3,1.4-2,2.4-2,3.2
		c0,0.3,0.1,0.6,0.4,0.9c-4.4,3.3-7.7,5.4-9.9,6.3c-0.4,0.4-0.5,0.8-0.5,1.1C199.7,80.7,200,80.8,200.7,80.8z"/>
	<path fill="#FFFFFF" d="M228.7,81.8c1.7,0,3.6-0.4,5.5-1.3c1.7-0.9,3.4-1.9,5.1-2.8c0.8,3.5,2.6,5.2,5.4,5.2c2.2,0,4.7-0.8,7.4-2.5
		c1.4-0.8,3.6-2.4,6.5-4.7c3.1-2.5,4.7-3.9,4.7-4.2c0-0.3-0.1-0.5-0.4-0.5l-3.4,2.6c-2.7,2-5.1,3.7-7.1,4.9c-3,1.7-5.4,2.6-7.1,2.6
		c-2.4,0-3.9-1.5-4.4-4.5c6.9-5.1,12.1-9.2,15.5-12.2C266,55.5,271,49.5,271,46.3c0-1.9-0.9-2.8-2.5-2.8c-3.1,0-7.2,2.5-12.4,7.6
		c-4.4,4.2-8.2,8.8-11.4,13.8c-1.7,2.6-2.6,4-2.7,4.3c-1.2,2.1-2.1,4.4-2.8,6.8c-1.3,0.9-2.9,1.7-4.8,2.5c-2,0.9-3.4,1.3-4.3,1.3
		c-1.2,0-1.9-0.5-1.9-1.4c0-0.9,0.5-1.8,1.6-2.9c2.5-2.5,4.6-3.8,6.2-3.8c1.2,0,1.9,0.1,2,0.5c0.1,0.4,0.2,0.7,0.3,1.1
		c0.1,0.4,0.3,0.5,0.5,0.5c0.7-0.1,1-0.6,1-1.6c0-0.4-0.3-0.8-0.7-1.2c-0.5-0.3-1-0.5-1.7-0.5c-2.8,0-5.7,1.3-8.8,3.8
		c-2.1,1.8-3.2,3.3-3.2,4.8c0,0.8,0.3,1.5,0.9,2C227.1,81.5,227.8,81.8,228.7,81.8z M247.8,62.2c3.3-4.5,6.9-8.6,10.8-12.1
		c3.9-3.5,6.7-5.3,8.4-5.3c1,0,1.5,0.5,1.5,1.6c0,1.7-1.3,4.3-4,7.6c-2.4,3.2-5.3,6.2-8.5,9c-4.4,3.9-9.5,7.9-15.1,12
		C241.8,71.4,244.1,67.1,247.8,62.2z"/>
	<path fill="#FFFFFF" d="M258.6,81c0.9,0.6,1.9,0.9,3.1,0.9c1.7,0,4.3-1.2,7.7-3.7c1.1-0.8,3.6-2.9,7.8-6.3c0.2-0.2,0.3-0.4,0.3-0.6
		c0-0.1-0.1-0.3-0.3-0.3c-0.1,0-0.3,0-0.4,0.1c-7.9,6-12.7,9-14.4,9c-1.4,0-2.1-0.8-2.1-2.4c0-1.2,0.6-2.5,1.8-3.9
		c1.2-1.4,1.7-2.3,1.7-2.5c0-0.3-0.2-0.5-0.7-0.5c-0.9,0.2-2.1,1.2-3.5,3c-1.5,1.9-2.2,3.6-2.2,5C257.2,79.6,257.6,80.3,258.6,81z"
		/>
	<path fill="#FFFFFF" d="M265.7,68.6c1.5,0,2.2-0.5,2.2-1.6c0-1.1-0.8-1.7-2.2-1.7c-1.5,0-2.2,0.5-2.2,1.7
		C263.5,68.1,264.3,68.6,265.7,68.6z"/>
	<path fill="#FFFFFF" d="M269.5,81c0.7,0.3,1.4,0.5,2.1,0.5c1,0,2.4-0.4,4.1-1.3c1.6-0.8,3-1.6,4-2.5c0,3.1,1.1,4.6,3.2,4.6
		c2.5,0,5.7-1.3,9.5-3.9c1.6-1.1,4.3-3.2,8.3-6.5c0.2-0.2,0.3-0.4,0.3-0.6c0-0.1-0.1-0.3-0.2-0.3c-0.1,0-0.3,0-0.4,0.1
		c-4.2,3.1-6.7,5-7.7,5.6c-3.7,2.5-6.5,3.8-8.3,3.8c-1.4,0-2.1-0.7-2.1-2.1c0-0.4,0.3-1.2,0.9-2.4c0.6-1.1,0.9-1.8,0.9-2.1
		c0-0.4-0.2-0.6-0.7-0.6c-0.5-0.1-1.1,0.4-2,1.3c-1.1,1.3-2,2.1-2.5,2.5c-2.4,1.6-4.5,2.4-6.5,2.4c-0.6,0-0.9-0.4-0.9-1.2
		c0-1.3,0.9-2.8,2.9-4.4c1.9-1.6,3.7-2.5,5.2-2.5c0.6,0,1.1,0.3,1.3,0.9s0.4,0.9,0.4,0.9c0.5,0.1,1-0.1,1.5-0.5
		c0.5-0.4,0.7-1,0.7-1.7s-0.7-1.1-2.2-1.1c-2.4,0-5.1,1.2-8.3,3.6c-3.1,2.4-4.7,4.5-4.7,6.2C268.5,80.2,268.8,80.7,269.5,81z"/>
	<path fill="#FFFFFF" d="M294.8,81.8c0.2,0.2,0.4,0.3,0.5,0.3c0.1,0,1.4-0.7,3.6-2.2c3.2-2,6.2-3.9,9.1-5.5
		c-0.4,1.6-0.6,2.9-0.6,3.8c0,2.3,1.1,3.5,3.3,3.5c2.5,0,5.5-1.2,9-3.5c1.4-0.9,4-3,7.8-6.1c0.2-0.2,0.3-0.4,0.3-0.6
		c0-0.1-0.1-0.3-0.2-0.4c-0.1,0-0.3,0-0.4,0.1c-4.1,3.1-6.4,4.8-7.1,5.2c-3.3,2.3-5.8,3.4-7.3,3.4c-1.9,0-2.9-0.7-2.9-2.1
		c0-1.2,0.6-2.5,1.7-3.9c1.2-1.3,1.7-2.1,1.7-2.1c0-0.5-0.1-0.7-0.4-0.7c-2.1,0-6.7,2.5-14,7.4c0.6-0.5,1.4-1.6,2.5-3
		c1.2-1.6,1.9-2.6,1.9-2.9c0-1-0.7-1.5-2-1.5c-0.3,0-0.7,0.2-1.2,0.5c-0.5,0.3-0.7,0.7-0.7,1c0,0.4,0.1,0.7,0.2,1
		c-0.3,0.5-1.2,2-2.8,4.3c-1.5,2-2.2,3.3-2.2,3.8C294.5,81.5,294.6,81.6,294.8,81.8z"/>
</g>
<g>
	<path fill="#FFFFFF" d="M351.6,82.2c3.8,0,8.3-1.3,13.7-3.8c3.1-1.4,4.6-2.5,4.6-3.2c0-0.3-0.1-0.4-0.3-0.4c-0.1,0-0.9,0.4-2.5,1.2
		c-2,0.9-3.7,1.7-5.2,2.3c-3.1,1.1-5.8,1.7-8.2,1.7c-4.2,0-7.4-1-9.8-3.2s-3.5-5.1-3.5-8.9c0-4.9,1.8-9.8,5.4-14.6
		c3.2-4.3,7.3-7.9,12.3-10.7c5-2.8,9.7-4.2,14.1-4.2c5.1,0,7.6,2,7.6,6.1c0,2.6-0.8,4.8-2.4,6.6c-0.9,1.1-2.7,2.4-5.2,4
		c-2.4,1.5-4.8,2.3-7,2.3c-0.5,0-0.9-0.1-1.1-0.4c-0.2-0.3-0.4-0.9-0.7-2c-0.5,0-1.1,0.3-1.6,0.8c-0.5,0.5-0.8,1.1-0.8,1.7
		c0,0.5,0.3,0.9,1.1,1.2c0.5,0.2,1,0.3,1.5,0.3c3.8,0,7.8-1.7,12-5.1c4.5-3.6,6.7-7.2,6.7-10.9c0-1.9-0.8-3.4-2.4-4.5
		c-1.6-1.2-3.6-1.8-6-1.8c-4.9,0-10.2,1.6-15.8,4.9c-5.6,3.3-10.2,7.4-13.9,12.4c-3.9,5.3-5.9,10.6-5.9,15.8c0,3.7,1.2,6.7,3.7,9
		C344.3,81.1,347.6,82.2,351.6,82.2z"/>
	<path fill="#FFFFFF" d="M375.8,80.5c0.5,0,1.5-0.3,2.8-0.9c1.6-0.8,2.9-1.6,3.8-2.6c0.2,2.6,1.1,3.9,2.8,3.9
		c2.8,0,7.9-3.1,15.2-9.2c0.2-0.2,0.2-0.3,0.2-0.5c0-0.1-0.1-0.2-0.2-0.2c-0.1,0-0.2,0-0.3,0.1c-3.5,2.6-5.7,4.2-6.6,4.8
		c-3.2,2.1-5.5,3.2-6.9,3.2c-0.4,0-0.9-0.3-1.4-0.9c-0.5-0.6-0.7-1.3-0.7-2c0-0.8,0.6-1.8,1.9-2.9c1.2-1.2,1.9-1.9,1.9-2.2
		c0-0.4-0.2-0.6-0.7-0.6c-0.5,0-1.3,0.8-2.5,2.3c-1.5,1.9-2.6,3.2-3.3,3.7c-0.7,0.6-1.6,1.1-2.8,1.6c-1,0.5-1.7,0.7-1.9,0.7
		c-0.6,0-0.9-0.6-0.9-1.7c0-1.1,0.8-2.4,2.5-3.8c0.9-0.7,1.7-1.3,2.6-1.9c0.2-0.5,0.1-0.7-0.3-0.7c-2.9,1.9-4.9,3.3-5.9,4.3
		c-1,1-1.5,2.1-1.5,3.3c0,0.6,0.2,1.1,0.7,1.5C374.8,80.3,375.3,80.5,375.8,80.5z"/>
	<path fill="#FFFFFF" d="M378,101.1c0.4,0.2,0.8,0.3,1.2,0.3c0.3,0,0.6-0.1,0.9-0.4c0.3-0.3,0.5-0.6,0.5-1c0-0.9,0-1.5,0-1.8
		c0.2-1.3,2-4.3,5.5-9.1c3.9-5.2,7.5-9.3,11-12.2c2.7-2.3,4.5-3.7,5.5-4.3c1.2-0.7,2.3-1.1,3.4-1.1c1.2,0,1.8,0.3,1.8,0.9
		c0,1.1-1,2.5-2.9,4c-1.9,1.6-3.4,2.4-4.4,2.4c-0.7,0-1.2-0.3-1.5-0.8c-0.1-0.3-0.2-0.5-0.3-0.7c-0.1-0.2-0.3-0.3-0.7-0.3
		c-0.6,0-0.9,0.5-0.9,1.5c0,0.4,0.1,0.8,0.4,1.1c0.3,0.3,0.7,0.5,1.1,0.5c1.2,0,2.7-0.5,4.6-1.5c1.9-1,3.5-2.1,4.8-3.5
		c1.3-1.4,1.9-2.5,1.9-3.3c0-1.2-0.7-1.8-2.2-1.8c-1.3,0-2.7,0.3-4.3,1.1c-1.3,0.7-2.6,1.4-3.8,2c6.9-7.8,10.3-11.9,10.3-12
		c0-0.4-0.1-0.5-0.3-0.6c-0.3,0-0.6,0.2-1.1,0.7c-8.5,9.3-14.2,15.7-17,19c-6,7-10,12.4-12.1,16.3c0,0.1-0.5,0.7-1.3,2
		c-0.4,0.6-0.6,1.1-0.6,1.7C377.4,100.6,377.6,100.8,378,101.1z"/>
</g>
<g>
	<path fill="#FFFFFF" d="M142.9,14.1c0.1-0.1,0.1-0.2,0-0.4c-0.1-0.2-0.2-0.3-0.4-0.3c-0.4,0-0.7,0.1-0.9,0.3l-1.4,1.4
		c0.2,0.3,0.4,0.6,0.6,0.8L142.9,14.1z"/>
	<path fill="#FFFFFF" d="M146.2,18.2c1.2,0,1.7,0,1.8,0c0.9-0.1,1.4-0.4,1.4-0.9l-7.9-0.3c0.3,0.4,0.6,0.8,0.9,1.2H146.2z"/>
	<path fill="#FFFFFF" d="M123.8,17.9l13.2,0.4c-1.8,1.9-3.6,3.7-5.3,5.6c-2.5,2.8-3.7,4.9-3.7,6.4c0,0.6,0.2,1.2,0.6,1.6
		c0.4,0.4,0.9,0.7,1.5,0.7c1.6,0,3.6-0.8,6-2.5c1-0.7,2.8-2.1,5.3-4.2c0.1-0.1,0.1-0.3,0.1-0.4c0-0.1,0-0.1-0.1-0.2s-0.2,0-0.3,0
		c-1.5,1.2-3.1,2.3-4.7,3.5c-2.3,1.6-4.1,2.4-5.5,2.4c-1,0-1.5-0.4-1.5-1.2c0-1.2,1.2-3.2,3.7-6c0.3-0.3,2-2.2,5.3-5.6h3.9
		c-0.3-0.4-0.6-0.8-0.9-1.2l-1.8-0.1l1.1-1c-0.2-0.3-0.4-0.6-0.6-0.8l-1.8,1.8h-14.1c-0.5,0-0.7,0.1-0.8,0.3
		C123.3,17.6,123.5,17.9,123.8,17.9z"/>
	<path fill="#FFFFFF" d="M149.3,15.5c2.5-2.9,4.3-5,5.5-6.2c1.9-1.8,3.4-2.7,4.5-2.7c0.8,0,1.2,0.3,1.2,1.1c0,1.6-1.4,3.9-4.3,6.9
		c-2.4,2.5-5.2,5-8.5,7.4c-0.6,0.4-1.2,0.8-1.7,1.2c0.1,0.1,0.2,0.3,0.3,0.4c4.2-2.5,8.3-6.1,12.3-10.8c2.3-2.7,3.5-4.5,3.5-5.6
		c0-0.5-0.3-0.9-0.8-1.4c-0.5-0.3-1-0.5-1.6-0.5c-1.6,0-4.8,2.5-9.4,7.6c-2.5,2.7-4.6,5.1-6.4,7.5c0.2,0.3,0.4,0.5,0.6,0.8
		C145.6,19.9,147.2,18,149.3,15.5z"/>
	<path fill="#FFFFFF" d="M148.1,24.9c0-0.4-0.2-0.5-0.5-0.5c-0.1,0-0.3,0-0.5,0.1c0.2,0.3,0.5,0.7,0.7,1
		C148,25.2,148.1,25,148.1,24.9z"/>
	<path fill="#FFFFFF" d="M153.2,27.7c0.3-0.2,0.8-0.7,1.7-1.5c0.5-0.4,0.8-0.7,0.8-0.8c0-0.3,0-0.4-0.2-0.4l-2.8,2.1
		c-0.9,0.7-1.7,1.2-2.4,1.7c0.2,0.2,0.3,0.5,0.5,0.7C151.7,29,152.5,28.4,153.2,27.7z"/>
	<path fill="#FFFFFF" d="M136.8,32c0.4,0,1.3-0.5,2.8-1.6c2.5-1.9,3.9-2.9,4.1-3.1c0.4-0.2,0.7-0.3,0.8-0.3
		c-0.2,1.1-0.3,1.9-0.3,2.3c0,1.3,0.7,1.9,2.2,1.9c1.1,0,2.4-0.5,4-1.5c0.1-0.1,0.3-0.2,0.4-0.3c-0.2-0.2-0.3-0.5-0.5-0.7
		c-1.3,0.9-2.2,1.3-2.7,1.3c-0.7,0-1.1-0.1-1.3-0.4c-0.1-0.2-0.2-0.5-0.2-1c0-0.6,0.3-1.3,1-2.3c0.3-0.4,0.5-0.7,0.7-1
		c-0.2-0.3-0.5-0.7-0.7-1c-0.5,0.2-1.3,0.6-2.2,1.2c-3.7,2.5-5.8,3.9-6.3,4.1l2.1-3.1c1.3-0.5,2.4-1,3.2-1.5
		c0.7-0.4,1.5-0.9,2.2-1.4c0.1-0.1,0.2-0.1,0.3-0.2c-0.1-0.1-0.2-0.3-0.3-0.4c-2.2,1.5-3.8,2.4-4.7,2.5c0.1-0.6,1-1.9,2.6-3.9
		c0.2-0.2,0.4-0.4,0.6-0.7c-0.2-0.3-0.4-0.5-0.6-0.8c-1.3,1.6-2.4,3.2-3.3,4.7c-0.3,0.5-1.3,1.8-2.8,4c-0.9,1.3-1.3,2.1-1.3,2.5
		C136.5,31.8,136.6,32,136.8,32z"/>
	<path fill="#FFFFFF" d="M151.1,29.4c1.1-0.5,2-1.1,2.8-1.8c0.4-0.4,0.9-0.8,1.3-1.2c0.4-0.4,0.7-0.8,0.7-1.3c0-0.3-0.1-0.5-0.4-0.8
		c-0.3-0.2-0.5-0.3-0.8-0.3c-0.9,0-2,0.7-3.3,2.1c-0.7,0.7-1.2,1.4-1.5,2.1c0.4,0.6,0.9,1.2,1.3,1.8
		C151.1,29.8,151.1,29.6,151.1,29.4z M152.1,26.3c0.7-0.7,1.2-1.1,1.7-1.1c0.3,0,0.4,0.1,0.4,0.3c0,0.7-0.8,1.5-2.5,2.5
		c-0.3,0.1-0.5,0.1-0.7,0.2C151.1,27.7,151.4,27,152.1,26.3z"/>
	<path fill="#FFFFFF" d="M158.6,29.9c1-0.7,2.8-2,5.3-4.2c0.1-0.1,0.1-0.3,0.1-0.4c0-0.1,0-0.2-0.2-0.1c-0.1,0-0.1,0-0.2,0
		c-2.7,2-4.4,3.2-4.9,3.6c-2.4,1.6-4.3,2.4-5.6,2.4c-0.5,0-0.9-0.1-1.3-0.4c0,0,0,0,0,0c0.4,0.5,0.8,1,1.2,1.5
		C154.6,32.2,156.5,31.3,158.6,29.9z"/>
	<path fill="#FFFFFF" d="M152,32.5c0.3,0,0.6,0,1-0.1c-0.4-0.5-0.8-1-1.2-1.5c-0.3-0.2-0.5-0.5-0.6-0.8c-0.4-0.6-0.9-1.2-1.3-1.8
		c-0.3,0.6-0.4,1.1-0.4,1.7C149.4,31.6,150.3,32.5,152,32.5z"/>
</g>
<g>
	<g id="angel_1_">
		<g>
			<path fill="#E1BD5C" d="M21.8,33.8c-0.2-4.4,0.2-10.1,0.8-15.2c-0.9-0.6-1.8-1.1-2.7-1.7c-2.4,11.5-0.1,24.6-0.1,24.6
				c-4.3-7.7-3.2-19.1-2-26c-0.7-0.4-1.3-0.8-2-1.3c-7,13,0.7,32.6,0.7,32.6c-6.6-6.1-5.8-28.1-5.8-28.1C2.1,46,16.4,55.9,16.4,55.9
				C9.4,57.3,5,36,5,36C4.5,57.1,16.9,63.6,16.9,63.6C14,65.8,6.3,55.4,6.3,55.4C7,63.1,18.4,68.9,18.4,68.9l1.9,1.4
				c-1.4,1.7-8-3.1-8-3.1c1,4.4,12.1,6.8,12.1,6.8c-2.2,1.3-8.3-1-8.3-1C29,87.5,41.4,84.4,41.4,84.4c5.1,0.1,5.3-6.1,4.5-9.9
				c-0.4-1.8-1.3-2.7-1.3-2.7c-4.8-0.2-9.5-4.4-9.5-4.4c-3.1-2.7,1-10.9,1-10.9c-3.1-4.5-8-17.4-8.4-27.3c-0.1-2.6,0-5.1,0.2-7.4
				c-1.5-0.9-3-1.8-4.4-2.7C21.9,26.5,21.8,33.8,21.8,33.8z"/>
			<path fill="#E1BD5C" d="M19.1,9.8c-1.4,1.4-2.4,2.9-3.3,4.5c0.7,0.4,1.3,0.8,2,1.3C18.4,12.1,19.1,9.8,19.1,9.8z"/>
			<path fill="#E1BD5C" d="M24.4,6c-2.3,3-3.7,6.9-4.5,11c0.9,0.6,1.8,1.1,2.7,1.7C23.4,11.8,24.4,6,24.4,6z"/>
			<path fill="#E1BD5C" d="M23.4,19.1c1.5,0.9,3,1.8,4.4,2.7C28.6,11.8,31.4,4,31.4,4C27.1,5.9,24.7,12.5,23.4,19.1z"/>
		</g>
	</g>
	<g id="angel_2_">
		<g>
			<path fill="#E1BD5C" d="M82.8,18.8c0,0,0.7,22-5.8,28.1c0,0,9.7-24.7-2.7-37.1c0,0,5.8,20.1-0.7,31.7c0,0,4.1-24-4.6-35.6
				c0,0,3.1,17.7,2.7,27.9c0,0-0.5-25.9-9.7-29.8c0,0,4.4,12,3.8,25.2c-0.2,4.1-1.1,8.6-2.3,12.9c5.8,3.1,11.7,6.2,17.6,9.2
				C84.4,46.1,88,35.9,82.8,18.8z"/>
			<path fill="#E1BD5C" d="M88.3,36c0,0-2.1,10.4-5.8,16.1c0.8,0.4,1.7,0.8,2.5,1.3C87,49.3,88.5,43.6,88.3,36z"/>
			<path fill="#E1BD5C" d="M76.9,55.9c0,0,2-1.4,4-4.5c-5.9-3-11.8-6.1-17.6-9.2c-1.8,6.2-4.2,11.8-6.1,14.5c0,0,4.1,8.3,1,10.9
				c0,0-4.6,4.1-9.5,4.4c0,0-0.9,0.8-1.3,2.7c-0.8,3.7-0.6,10,4.5,10c0,0,12.3,3.1,25.2-11.4c0,0-6,2.2-8.3,1c0,0,11.1-2.4,12.1-6.8
				c0,0-6.6,4.8-8,3.1l1.9-1.4c0,0,11.4-5.8,12.1-13.6c0.1-0.1-7.6,10.3-10.6,8.2c0,0,5.1-2.7,8.6-10.2c-0.8-0.4-1.7-0.8-2.5-1.3
				C80.9,54.7,79.1,56.4,76.9,55.9z"/>
		</g>
	</g>
</g>
</svg>
